<?xml version="1.0" encoding="utf-8"?>
<!-- Generator: Adobe Illustrator 26.2.1, SVG Export Plug-In . SVG Version: 6.00 Build 0)  -->
<svg version="1.1" id="Layer_1" xmlns="http://www.w3.org/2000/svg" xmlns:xlink="http://www.w3.org/1999/xlink" x="0px" y="0px"
	 viewBox="0 0 600 600" style="enable-background:new 0 0 600 600;" xml:space="preserve">
<style type="text/css">
	.st0{fill:#231F20;}
	.st1{fill:#FFFFFF;}
</style>
<path class="st0" d="M265.3,54.6L53.1,265.2c-19.4,19.3-19.7,50.6-0.7,70.3l212.2,218.7c19.6,20.2,52.1,20.2,71.8,0l212.2-218.7
	c19.1-19.7,18.8-51-0.7-70.3L335.7,54.6C316.2,35.2,284.8,35.2,265.3,54.6z"/>
<path class="st1" d="M332.5,297.8c-0.5,28.5-22.5,52.3-50.3,55.6c-3.9,0.5-1.9,0.3-47.6,1c-30.5,0.5-54.8-23.7-54.3-54.3
	c0.5-30.5,25.6-55.5,56-56c18.2-0.3,28.9-0.5,35.3-0.6c4.2-0.1,6.2,4.9,3.3,8c-3.6,3.6-6.7,7.7-9.4,12c-0.9,1.4-2.4,2.3-4,2.3
	l-25.6,0.4c-18.2,0.3-33.3,15.3-33.6,33.6c-0.3,18.2,14.2,32.8,32.6,32.6l41.9-0.7c18.2-0.3,33.3-15.4,33.6-33.6
	c0.1-3.7-0.5-7.3-1.7-10.8c-0.6-1.9,0.1-4,1.7-5.3c3.6-2.8,7.9-4.5,12.6-4.6h2.4c2.1,0,3.8,1.2,4.4,3.2
	C331.7,286,332.6,291.8,332.5,297.8L332.5,297.8z M419.8,296.5c0.5-30.5-23.8-54.8-54.3-54.3c-45.8,0.7-43.7,0.6-47.6,1
	c-27.8,3.3-49.8,27.1-50.3,55.6c-0.1,6,0.8,11.8,2.5,17.3c0.6,1.9,2.4,3.2,4.4,3.2h2.4c4.7-0.1,9.2-1.7,12.6-4.6
	c1.6-1.3,2.4-3.4,1.7-5.3c-1.2-3.5-1.7-7.2-1.7-10.8c0.3-18.2,15.4-33.3,33.6-33.6l41.9-0.7c18.3-0.3,32.8,14.3,32.6,32.6
	c-0.3,18.3-15.4,33.3-33.6,33.6l-25.6,0.4c-1.7,0-3.2,0.9-4,2.3c-2.7,4.3-5.8,8.4-9.4,12c-2.9,3-0.9,8,3.3,8
	c6.5-0.1,17-0.3,35.3-0.6C394.3,351.9,419.3,326.9,419.8,296.5L419.8,296.5z"/>
</svg>
